<svg width="71" height="71" viewBox="0 0 71 71" fill="none" xmlns="http://www.w3.org/2000/svg">
<defs>
<filter id="filter0_d" x="0.269226" y="0" width="70.4808" height="71" filterUnits="userSpaceOnUse" color-interpolation-filters="sRGB">
<feFlood flood-opacity="0" result="BackgroundImageFix"/>
<feColorMatrix in="SourceAlpha" type="matrix" values="0 0 0 0 0 0 0 0 0 0 0 0 0 0 0 0 0 0 127 0" result="hardAlpha"/>
<feOffset dy="1"/>
<feGaussianBlur stdDeviation="2"/>
<feColorMatrix type="matrix" values="0 0 0 0 0 0 0 0 0 0 0 0 0 0 0 0 0 0 0.25 0"/>
<feBlend mode="normal" in2="BackgroundImageFix" result="effect1_dropShadow"/>
<feBlend mode="normal" in="SourceGraphic" in2="effect1_dropShadow" result="shape"/>
</filter>
</defs>
<g filter="url(#filter0_d)">
<rect x="4.26923" y="3" width="62.4808" height="63" rx="30" fill="white"/>
</g>
<path d="M44.855 24.8077H39.2745C38.7138 23.4023 37.2452 22.3846 35.5096 22.3846C33.774 22.3846 32.3055 23.4023 31.7447 24.8077H26.1642C24.6956 24.8077 23.4941 25.8981 23.4941 27.2308V44.1923C23.4941 45.525 24.6956 46.6154 26.1642 46.6154H44.855C46.3236 46.6154 47.5251 45.525 47.5251 44.1923V27.2308C47.5251 25.8981 46.3236 24.8077 44.855 24.8077ZM35.5096 24.8077C36.2439 24.8077 36.8447 25.3529 36.8447 26.0193C36.8447 26.6856 36.2439 27.2308 35.5096 27.2308C34.7753 27.2308 34.1746 26.6856 34.1746 26.0193C34.1746 25.3529 34.7753 24.8077 35.5096 24.8077ZM38.1797 41.7693H28.8343V39.3462H38.1797V41.7693ZM42.1849 36.9231H28.8343V34.5H42.1849V36.9231ZM42.1849 32.077H28.8343V29.6539H42.1849V32.077Z" fill="#332F1F"/>
</svg>
