<svg width="27" height="24" viewBox="0 0 27 24" fill="none" xmlns="http://www.w3.org/2000/svg">
<path d="M13.2083 9.125H15.7917V5.75H19.6667V3.5H15.7917V0.125H13.2083V3.5H9.33332V5.75H13.2083V9.125ZM8.04166 19.25C6.62082 19.25 5.47124 20.2625 5.47124 21.5C5.47124 22.7375 6.62082 23.75 8.04166 23.75C9.46249 23.75 10.625 22.7375 10.625 21.5C10.625 20.2625 9.46249 19.25 8.04166 19.25ZM20.9583 19.25C19.5375 19.25 18.3879 20.2625 18.3879 21.5C18.3879 22.7375 19.5375 23.75 20.9583 23.75C22.3792 23.75 23.5417 22.7375 23.5417 21.5C23.5417 20.2625 22.3792 19.25 20.9583 19.25ZM8.26124 15.5938L8.29999 15.4587L9.46249 13.625H19.0854C20.0542 13.625 20.9067 13.1638 21.3458 12.4663L26.3317 4.58L24.0842 3.5H24.0712L22.6504 5.75L19.0854 11.375H10.0179L9.84999 11.0712L6.95666 5.75L5.72957 3.5L4.51541 1.25H0.291656V3.5H2.87499L7.52499 12.0387L5.78124 14.795C5.57457 15.11 5.45832 15.4812 5.45832 15.875C5.45832 17.1125 6.62082 18.125 8.04166 18.125H23.5417V15.875H8.58416C8.41624 15.875 8.26124 15.7513 8.26124 15.5938Z" fill="#332F1F"/>
</svg>
