<svg width="25" height="25" viewBox="0 0 25 25" fill="none" xmlns="http://www.w3.org/2000/svg">
<path d="M8.53368 12.1971C7.70767 12.1971 7.03728 12.8756 7.03728 13.7115C7.03728 14.5475 7.70767 15.226 8.53368 15.226C9.35969 15.226 10.0301 14.5475 10.0301 13.7115C10.0301 12.8756 9.35969 12.1971 8.53368 12.1971ZM15.7164 12.1971C14.8904 12.1971 14.22 12.8756 14.22 13.7115C14.22 14.5475 14.8904 15.226 15.7164 15.226C16.5424 15.226 17.2128 14.5475 17.2128 13.7115C17.2128 12.8756 16.5424 12.1971 15.7164 12.1971ZM12.125 0.384613C5.51695 0.384613 0.15387 5.81231 0.15387 12.5C0.15387 19.1877 5.51695 24.6154 12.125 24.6154C18.7331 24.6154 24.0962 19.1877 24.0962 12.5C24.0962 5.81231 18.7331 0.384613 12.125 0.384613ZM12.125 22.1923C6.84575 22.1923 2.5481 17.8429 2.5481 12.5C2.5481 12.1487 2.57204 11.7973 2.60796 11.4581C5.43315 10.186 7.67175 7.84769 8.84493 4.95211C11.0117 8.05365 14.5791 10.0769 18.6134 10.0769C19.5471 10.0769 20.445 9.96788 21.3069 9.76192C21.5583 10.6221 21.7019 11.5429 21.7019 12.5C21.7019 17.8429 17.4043 22.1923 12.125 22.1923Z" fill="#332F1F"/>
</svg>
